solid OpenSCAD_Model
  facet normal -1 0 0
    outer loop
      vertex -70 -15 15
      vertex -70 -15 18.4905
      vertex -70 15 15
    endloop
  endfacet
  facet normal -1 0 0
    outer loop
      vertex -70 15 15
      vertex -70 -15 18.4905
      vertex -70 15 18.4905
    endloop
  endfacet
  facet normal 0 -1 0
    outer loop
      vertex -70 -15 18.4905
      vertex -70 -15 15
      vertex 70 -15 15
    endloop
  endfacet
  facet normal 0 -1 0
    outer loop
      vertex 0 -15 19.6
      vertex -70 -15 18.4905
      vertex 70 -15 18.4905
    endloop
  endfacet
  facet normal 0 -1 0
    outer loop
      vertex 70 -15 18.4905
      vertex -70 -15 18.4905
      vertex 70 -15 15
    endloop
  endfacet
  facet normal 0 -1 0
    outer loop
      vertex -24.9997 -15 50
      vertex -70 -15 18.4905
      vertex 24.9997 -15 50
    endloop
  endfacet
  facet normal 0 -1 0
    outer loop
      vertex 0 -15 19.6
      vertex -0.309017 -15 19.6538
      vertex -70 -15 18.4905
    endloop
  endfacet
  facet normal 0 -1 0
    outer loop
      vertex -1 -15 20.7
      vertex -70 -15 18.4905
      vertex -0.951057 -15 20.3601
    endloop
  endfacet
  facet normal 0 -1 0
    outer loop
      vertex -0.951057 -15 21.0399
      vertex -70 -15 18.4905
      vertex -1 -15 20.7
    endloop
  endfacet
  facet normal 0 -1 0
    outer loop
      vertex -0.809017 -15 21.3466
      vertex -70 -15 18.4905
      vertex -0.951057 -15 21.0399
    endloop
  endfacet
  facet normal 0 -1 0
    outer loop
      vertex 24.9997 -15 50
      vertex -70 -15 18.4905
      vertex -0.809017 -15 21.3466
    endloop
  endfacet
  facet normal 0 -1 0
    outer loop
      vertex -0.309017 -15 21.7462
      vertex 0 -15 21.8
      vertex 24.9997 -15 50
    endloop
  endfacet
  facet normal 0 -1 0
    outer loop
      vertex 24.9997 -15 50
      vertex -0.809017 -15 21.3466
      vertex -0.587785 -15 21.5899
    endloop
  endfacet
  facet normal 0 -1 0
    outer loop
      vertex 0 -15 21.8
      vertex 0.309017 -15 21.7462
      vertex 24.9997 -15 50
    endloop
  endfacet
  facet normal 0 -1 0
    outer loop
      vertex 0.951057 -15 20.3601
      vertex 0.809017 -15 20.0534
      vertex 70 -15 18.4905
    endloop
  endfacet
  facet normal 0 -1 0
    outer loop
      vertex 24.9997 -15 50
      vertex 0.309017 -15 21.7462
      vertex 70 -15 18.4905
    endloop
  endfacet
  facet normal 0 -1 0
    outer loop
      vertex 0.309017 -15 21.7462
      vertex 0.587785 -15 21.5899
      vertex 70 -15 18.4905
    endloop
  endfacet
  facet normal 0 -1 0
    outer loop
      vertex 0.587785 -15 21.5899
      vertex 0.809017 -15 21.3466
      vertex 70 -15 18.4905
    endloop
  endfacet
  facet normal 0 -1 0
    outer loop
      vertex 0.809017 -15 21.3466
      vertex 0.951057 -15 21.0399
      vertex 70 -15 18.4905
    endloop
  endfacet
  facet normal 0 -1 0
    outer loop
      vertex 0.951057 -15 21.0399
      vertex 1 -15 20.7
      vertex 70 -15 18.4905
    endloop
  endfacet
  facet normal 0 -1 0
    outer loop
      vertex 1 -15 20.7
      vertex 0.951057 -15 20.3601
      vertex 70 -15 18.4905
    endloop
  endfacet
  facet normal 0 -1 0
    outer loop
      vertex 0.809017 -15 20.0534
      vertex 0.587785 -15 19.8101
      vertex 70 -15 18.4905
    endloop
  endfacet
  facet normal 0 -1 0
    outer loop
      vertex 0.587785 -15 19.8101
      vertex 0.309017 -15 19.6538
      vertex 70 -15 18.4905
    endloop
  endfacet
  facet normal 0 -1 0
    outer loop
      vertex 0.309017 -15 19.6538
      vertex 0 -15 19.6
      vertex 70 -15 18.4905
    endloop
  endfacet
  facet normal 0 -1 0
    outer loop
      vertex -0.309017 -15 19.6538
      vertex -0.587785 -15 19.8101
      vertex -70 -15 18.4905
    endloop
  endfacet
  facet normal 0 -1 0
    outer loop
      vertex -0.587785 -15 19.8101
      vertex -0.809017 -15 20.0534
      vertex -70 -15 18.4905
    endloop
  endfacet
  facet normal 0 -1 0
    outer loop
      vertex -0.951057 -15 20.3601
      vertex -70 -15 18.4905
      vertex -0.809017 -15 20.0534
    endloop
  endfacet
  facet normal 0 -1 0
    outer loop
      vertex -0.587785 -15 21.5899
      vertex -0.309017 -15 21.7462
      vertex 24.9997 -15 50
    endloop
  endfacet
  facet normal 0 0 -1
    outer loop
      vertex -70 -15 15
      vertex -70 15 15
      vertex 70 -15 15
    endloop
  endfacet
  facet normal 0 0 -1
    outer loop
      vertex 70 -15 15
      vertex -70 15 15
      vertex 70 15 15
    endloop
  endfacet
  facet normal 0 1 0
    outer loop
      vertex -70 15 15
      vertex -70 15 18.4905
      vertex 70 15 15
    endloop
  endfacet
  facet normal 0 1 0
    outer loop
      vertex 0 15 24
      vertex -70 15 18.4905
      vertex -24.9997 15 50
    endloop
  endfacet
  facet normal 0 1 0
    outer loop
      vertex 70 15 15
      vertex -24.9997 15 50
      vertex -6 15 50
    endloop
  endfacet
  facet normal 0 1 0
    outer loop
      vertex -2.5 15 59.7
      vertex -6 15 50
      vertex -6 15 70
    endloop
  endfacet
  facet normal 0 1 0
    outer loop
      vertex 6 15 50
      vertex -6 15 50
      vertex -2.5 15 59.7
    endloop
  endfacet
  facet normal 0 1 0
    outer loop
      vertex 6 15 50
      vertex -2.5 15 59.7
      vertex 2.5 15 59.7
    endloop
  endfacet
  facet normal 0 1 0
    outer loop
      vertex 70 15 15
      vertex -6 15 50
      vertex 6 15 50
    endloop
  endfacet
  facet normal 0 1 0
    outer loop
      vertex 70 15 18.4905
      vertex 70 15 15
      vertex 24.9997 15 50
    endloop
  endfacet
  facet normal 0 1 0
    outer loop
      vertex 6 15 50
      vertex 2.5 15 59.7
      vertex 2.5 15 70
    endloop
  endfacet
  facet normal 0 1 0
    outer loop
      vertex -4 15 19
      vertex -70 15 18.4905
      vertex 0 15 24
    endloop
  endfacet
  facet normal 0 1 0
    outer loop
      vertex 70 15 15
      vertex 0 15 24
      vertex -24.9997 15 50
    endloop
  endfacet
  facet normal 0 1 0
    outer loop
      vertex 70 15 15
      vertex -70 15 18.4905
      vertex -4 15 19
    endloop
  endfacet
  facet normal 0 1 0
    outer loop
      vertex 70 15 15
      vertex -4 15 19
      vertex 4 15 19
    endloop
  endfacet
  facet normal 0 1 0
    outer loop
      vertex 70 15 15
      vertex 4 15 19
      vertex 0 15 24
    endloop
  endfacet
  facet normal 0 1 0
    outer loop
      vertex -2.5 15 59.7
      vertex -6 15 70
      vertex -2.5 15 70
    endloop
  endfacet
  facet normal 0 1 0
    outer loop
      vertex 6 15 50
      vertex 2.5 15 70
      vertex 6 15 70
    endloop
  endfacet
  facet normal 0 1 0
    outer loop
      vertex 24.9997 15 50
      vertex 70 15 15
      vertex 6 15 50
    endloop
  endfacet
  facet normal -0.573576 0 0.819152
    outer loop
      vertex -69.2723 -13.2 19
      vertex -70 -15 18.4905
      vertex -24.9997 -15 50
    endloop
  endfacet
  facet normal -0.573576 0 0.819152
    outer loop
      vertex -70 15 18.4905
      vertex -70 -15 18.4905
      vertex -69.2723 -13.2 19
    endloop
  endfacet
  facet normal -0.573576 0 0.819152
    outer loop
      vertex -69.2723 13.2 19
      vertex -24.9997 13.2 50
      vertex -70 15 18.4905
    endloop
  endfacet
  facet normal -0.573576 0 0.819152
    outer loop
      vertex -70 15 18.4905
      vertex -69.2723 -13.2 19
      vertex -69.2723 13.2 19
    endloop
  endfacet
  facet normal -0.573576 0 0.819152
    outer loop
      vertex -24.9997 15 50
      vertex -70 15 18.4905
      vertex -24.9997 13.2 50
    endloop
  endfacet
  facet normal -0.573576 0 0.819152
    outer loop
      vertex -24.9997 -13.2 50
      vertex -69.2723 -13.2 19
      vertex -24.9997 -15 50
    endloop
  endfacet
  facet normal 0 0 1
    outer loop
      vertex 0.855 -14.8 50
      vertex -24.9997 -15 50
      vertex 24.9997 -15 50
    endloop
  endfacet
  facet normal 0 0 1
    outer loop
      vertex -0.855 -14.8 50
      vertex -0.9 -13.2 50
      vertex -24.9997 -13.2 50
    endloop
  endfacet
  facet normal 0 0 1
    outer loop
      vertex 24.9997 -13.2 50
      vertex 0.9 -13.2 50
      vertex 24.9997 -15 50
    endloop
  endfacet
  facet normal 0 0 1
    outer loop
      vertex -0.855 -14.8 50
      vertex -24.9997 -15 50
      vertex 0.855 -14.8 50
    endloop
  endfacet
  facet normal 0 0 1
    outer loop
      vertex -24.9997 -13.2 50
      vertex -24.9997 -15 50
      vertex -0.855 -14.8 50
    endloop
  endfacet
  facet normal 0 0 1
    outer loop
      vertex -0.855 -14.8 50
      vertex -0.855 7 50
      vertex -0.9 -13.2 50
    endloop
  endfacet
  facet normal 0 0 1
    outer loop
      vertex -0.9 7 50
      vertex -0.9 -13.2 50
      vertex -0.855 7 50
    endloop
  endfacet
  facet normal 0 0 1
    outer loop
      vertex 0.855 7 50
      vertex 0.9 -13.2 50
      vertex 0.9 7 50
    endloop
  endfacet
  facet normal 0 0 1
    outer loop
      vertex 0.9 -13.2 50
      vertex 0.855 -14.8 50
      vertex 24.9997 -15 50
    endloop
  endfacet
  facet normal 0 0 1
    outer loop
      vertex 0.855 7 50
      vertex 0.855 -14.8 50
      vertex 0.9 -13.2 50
    endloop
  endfacet
  facet normal 0.573576 0 0.819152
    outer loop
      vertex 69.2723 13.2 19
      vertex 70 15 18.4905
      vertex 24.9997 15 50
    endloop
  endfacet
  facet normal 0.573576 0 0.819152
    outer loop
      vertex 70 -15 18.4905
      vertex 70 15 18.4905
      vertex 69.2723 13.2 19
    endloop
  endfacet
  facet normal 0.573576 0 0.819152
    outer loop
      vertex 69.2723 -13.2 19
      vertex 24.9997 -13.2 50
      vertex 70 -15 18.4905
    endloop
  endfacet
  facet normal 0.573576 0 0.819152
    outer loop
      vertex 70 -15 18.4905
      vertex 69.2723 13.2 19
      vertex 69.2723 -13.2 19
    endloop
  endfacet
  facet normal 0.573576 0 0.819152
    outer loop
      vertex 24.9997 -15 50
      vertex 70 -15 18.4905
      vertex 24.9997 -13.2 50
    endloop
  endfacet
  facet normal 0.573576 0 0.819152
    outer loop
      vertex 24.9997 13.2 50
      vertex 69.2723 13.2 19
      vertex 24.9997 15 50
    endloop
  endfacet
  facet normal 1 0 0
    outer loop
      vertex 70 -15 18.4905
      vertex 70 -15 15
      vertex 70 15 15
    endloop
  endfacet
  facet normal 1 0 0
    outer loop
      vertex 70 15 18.4905
      vertex 70 -15 18.4905
      vertex 70 15 15
    endloop
  endfacet
  facet normal 0.907382 2.8309e-017 0.420306
    outer loop
      vertex -0.809017 -15 20.0534
      vertex -0.809017 15 20.0534
      vertex -0.951057 15 20.3601
    endloop
  endfacet
  facet normal 0.907382 2.8309e-017 0.420306
    outer loop
      vertex -0.951057 -15 20.3601
      vertex -0.809017 -15 20.0534
      vertex -0.951057 15 20.3601
    endloop
  endfacet
  facet normal 0.989793 9.59884e-018 0.142515
    outer loop
      vertex -0.951057 -15 20.3601
      vertex -0.951057 15 20.3601
      vertex -1 15 20.7
    endloop
  endfacet
  facet normal 0.989793 9.59884e-018 0.142515
    outer loop
      vertex -1 -15 20.7
      vertex -0.951057 -15 20.3601
      vertex -1 15 20.7
    endloop
  endfacet
  facet normal 0.73994 4.53068e-017 0.672673
    outer loop
      vertex -0.587785 -15 19.8101
      vertex -0.587785 15 19.8101
      vertex -0.809017 15 20.0534
    endloop
  endfacet
  facet normal 0.73994 4.53068e-017 0.672673
    outer loop
      vertex -0.809017 -15 20.0534
      vertex -0.587785 -15 19.8101
      vertex -0.809017 15 20.0534
    endloop
  endfacet
  facet normal 0.488922 5.87542e-017 0.872327
    outer loop
      vertex -0.309017 -15 19.6538
      vertex -0.309017 15 19.6538
      vertex -0.587785 15 19.8101
    endloop
  endfacet
  facet normal 0.488922 5.87542e-017 0.872327
    outer loop
      vertex -0.587785 -15 19.8101
      vertex -0.309017 -15 19.6538
      vertex -0.587785 15 19.8101
    endloop
  endfacet
  facet normal 0.171636 6.63539e-017 0.98516
    outer loop
      vertex 0 -15 19.6
      vertex 0 15 19.6
      vertex -0.309017 15 19.6538
    endloop
  endfacet
  facet normal 0.171636 6.63539e-017 0.98516
    outer loop
      vertex -0.309017 -15 19.6538
      vertex 0 -15 19.6
      vertex -0.309017 15 19.6538
    endloop
  endfacet
  facet normal -0.171636 6.63539e-017 0.98516
    outer loop
      vertex 0.309017 -15 19.6538
      vertex 0.309017 15 19.6538
      vertex 0 15 19.6
    endloop
  endfacet
  facet normal -0.171636 6.63539e-017 0.98516
    outer loop
      vertex 0 -15 19.6
      vertex 0.309017 -15 19.6538
      vertex 0 15 19.6
    endloop
  endfacet
  facet normal -0.488922 5.87542e-017 0.872327
    outer loop
      vertex 0.587785 -15 19.8101
      vertex 0.587785 15 19.8101
      vertex 0.309017 15 19.6538
    endloop
  endfacet
  facet normal -0.488922 5.87542e-017 0.872327
    outer loop
      vertex 0.309017 -15 19.6538
      vertex 0.587785 -15 19.8101
      vertex 0.309017 15 19.6538
    endloop
  endfacet
  facet normal -0.73994 4.53068e-017 0.672673
    outer loop
      vertex 0.809017 15 20.0534
      vertex 0.587785 15 19.8101
      vertex 0.809017 -15 20.0534
    endloop
  endfacet
  facet normal -0.73994 4.53068e-017 0.672673
    outer loop
      vertex 0.809017 -15 20.0534
      vertex 0.587785 15 19.8101
      vertex 0.587785 -15 19.8101
    endloop
  endfacet
  facet normal -0.907382 2.8309e-017 0.420306
    outer loop
      vertex 0.951057 15 20.3601
      vertex 0.809017 15 20.0534
      vertex 0.951057 -15 20.3601
    endloop
  endfacet
  facet normal -0.907382 2.8309e-017 0.420306
    outer loop
      vertex 0.951057 -15 20.3601
      vertex 0.809017 15 20.0534
      vertex 0.809017 -15 20.0534
    endloop
  endfacet
  facet normal -0.989793 9.59884e-018 0.142515
    outer loop
      vertex 1 15 20.7
      vertex 0.951057 15 20.3601
      vertex 1 -15 20.7
    endloop
  endfacet
  facet normal -0.989793 9.59884e-018 0.142515
    outer loop
      vertex 1 -15 20.7
      vertex 0.951057 15 20.3601
      vertex 0.951057 -15 20.3601
    endloop
  endfacet
  facet normal -0.989793 -9.59884e-018 -0.142515
    outer loop
      vertex 1 15 20.7
      vertex 1 -15 20.7
      vertex 0.951057 15 21.0399
    endloop
  endfacet
  facet normal -0.989793 -9.59884e-018 -0.142515
    outer loop
      vertex 0.951057 15 21.0399
      vertex 1 -15 20.7
      vertex 0.951057 -15 21.0399
    endloop
  endfacet
  facet normal -0.907382 -2.8309e-017 -0.420306
    outer loop
      vertex 0.951057 15 21.0399
      vertex 0.951057 -15 21.0399
      vertex 0.809017 15 21.3466
    endloop
  endfacet
  facet normal -0.907382 -2.8309e-017 -0.420306
    outer loop
      vertex 0.809017 15 21.3466
      vertex 0.951057 -15 21.0399
      vertex 0.809017 -15 21.3466
    endloop
  endfacet
  facet normal -0.73994 -4.53068e-017 -0.672673
    outer loop
      vertex 0.809017 15 21.3466
      vertex 0.809017 -15 21.3466
      vertex 0.587785 15 21.5899
    endloop
  endfacet
  facet normal -0.73994 -4.53068e-017 -0.672673
    outer loop
      vertex 0.587785 15 21.5899
      vertex 0.809017 -15 21.3466
      vertex 0.587785 -15 21.5899
    endloop
  endfacet
  facet normal -0.488922 -5.87542e-017 -0.872327
    outer loop
      vertex 0.587785 15 21.5899
      vertex 0.587785 -15 21.5899
      vertex 0.309017 15 21.7462
    endloop
  endfacet
  facet normal -0.488922 -5.87542e-017 -0.872327
    outer loop
      vertex 0.309017 15 21.7462
      vertex 0.587785 -15 21.5899
      vertex 0.309017 -15 21.7462
    endloop
  endfacet
  facet normal -0.171636 -6.63539e-017 -0.98516
    outer loop
      vertex 0.309017 15 21.7462
      vertex 0.309017 -15 21.7462
      vertex 0 15 21.8
    endloop
  endfacet
  facet normal -0.171636 -6.63539e-017 -0.98516
    outer loop
      vertex 0 15 21.8
      vertex 0.309017 -15 21.7462
      vertex 0 -15 21.8
    endloop
  endfacet
  facet normal 0.171636 -6.63539e-017 -0.98516
    outer loop
      vertex 0 15 21.8
      vertex 0 -15 21.8
      vertex -0.309017 15 21.7462
    endloop
  endfacet
  facet normal 0.171636 -6.63539e-017 -0.98516
    outer loop
      vertex -0.309017 15 21.7462
      vertex 0 -15 21.8
      vertex -0.309017 -15 21.7462
    endloop
  endfacet
  facet normal 0.488922 -5.87542e-017 -0.872327
    outer loop
      vertex -0.309017 15 21.7462
      vertex -0.309017 -15 21.7462
      vertex -0.587785 15 21.5899
    endloop
  endfacet
  facet normal 0.488922 -5.87542e-017 -0.872327
    outer loop
      vertex -0.587785 15 21.5899
      vertex -0.309017 -15 21.7462
      vertex -0.587785 -15 21.5899
    endloop
  endfacet
  facet normal 0.73994 -4.53068e-017 -0.672673
    outer loop
      vertex -0.809017 15 21.3466
      vertex -0.587785 15 21.5899
      vertex -0.587785 -15 21.5899
    endloop
  endfacet
  facet normal 0.73994 -4.53068e-017 -0.672673
    outer loop
      vertex -0.809017 -15 21.3466
      vertex -0.809017 15 21.3466
      vertex -0.587785 -15 21.5899
    endloop
  endfacet
  facet normal 0.907382 -2.8309e-017 -0.420306
    outer loop
      vertex -0.951057 15 21.0399
      vertex -0.809017 15 21.3466
      vertex -0.809017 -15 21.3466
    endloop
  endfacet
  facet normal 0.907382 -2.8309e-017 -0.420306
    outer loop
      vertex -0.951057 -15 21.0399
      vertex -0.951057 15 21.0399
      vertex -0.809017 -15 21.3466
    endloop
  endfacet
  facet normal 0.989793 -9.59884e-018 -0.142515
    outer loop
      vertex -1 15 20.7
      vertex -0.951057 15 21.0399
      vertex -0.951057 -15 21.0399
    endloop
  endfacet
  facet normal 0.989793 -9.59884e-018 -0.142515
    outer loop
      vertex -1 -15 20.7
      vertex -1 15 20.7
      vertex -0.951057 -15 21.0399
    endloop
  endfacet
  facet normal 0 0 1
    outer loop
      vertex 24.9997 15 50
      vertex 6 15 50
      vertex 24.9997 13.2 50
    endloop
  endfacet
  facet normal 0 0 1
    outer loop
      vertex 24.9997 13.2 50
      vertex 6 15 50
      vertex 6 13.2 50
    endloop
  endfacet
  facet normal 1 0 0
    outer loop
      vertex 6 15 50
      vertex 6 7 70
      vertex 6 13.2 50
    endloop
  endfacet
  facet normal 1 0 0
    outer loop
      vertex 6 15 70
      vertex 6 7 70
      vertex 6 15 50
    endloop
  endfacet
  facet normal 1 0 0
    outer loop
      vertex 6 7 50
      vertex 6 13.2 50
      vertex 6 7 70
    endloop
  endfacet
  facet normal 0 0 1
    outer loop
      vertex 2.5 15 70
      vertex 2.5 7 70
      vertex 6 7 70
    endloop
  endfacet
  facet normal 0 0 1
    outer loop
      vertex 6 15 70
      vertex 2.5 15 70
      vertex 6 7 70
    endloop
  endfacet
  facet normal -1 0 0
    outer loop
      vertex 2.5 15 70
      vertex 2.5 15 59.7
      vertex 2.5 7 70
    endloop
  endfacet
  facet normal -1 0 0
    outer loop
      vertex 2.5 7 70
      vertex 2.5 15 59.7
      vertex 2.5 7 59.7
    endloop
  endfacet
  facet normal 0 0 1
    outer loop
      vertex 2.5 7 59.7
      vertex 2.5 15 59.7
      vertex -2.5 15 59.7
    endloop
  endfacet
  facet normal 0 0 1
    outer loop
      vertex -2.5 7 59.7
      vertex 2.5 7 59.7
      vertex -2.5 15 59.7
    endloop
  endfacet
  facet normal 1 0 0
    outer loop
      vertex -2.5 15 59.7
      vertex -2.5 15 70
      vertex -2.5 7 70
    endloop
  endfacet
  facet normal 1 0 0
    outer loop
      vertex -2.5 7 59.7
      vertex -2.5 15 59.7
      vertex -2.5 7 70
    endloop
  endfacet
  facet normal 0 0 1
    outer loop
      vertex -6 15 70
      vertex -6 7 70
      vertex -2.5 7 70
    endloop
  endfacet
  facet normal 0 0 1
    outer loop
      vertex -2.5 15 70
      vertex -6 15 70
      vertex -2.5 7 70
    endloop
  endfacet
  facet normal -1 0 0
    outer loop
      vertex -6 13.2 50
      vertex -6 15 70
      vertex -6 15 50
    endloop
  endfacet
  facet normal -1 0 0
    outer loop
      vertex -6 7 50
      vertex -6 7 70
      vertex -6 15 70
    endloop
  endfacet
  facet normal -1 0 0
    outer loop
      vertex -6 7 50
      vertex -6 15 70
      vertex -6 13.2 50
    endloop
  endfacet
  facet normal 0 0 1
    outer loop
      vertex -24.9997 15 50
      vertex -24.9997 13.2 50
      vertex -6 13.2 50
    endloop
  endfacet
  facet normal 0 0 1
    outer loop
      vertex -6 15 50
      vertex -24.9997 15 50
      vertex -6 13.2 50
    endloop
  endfacet
  facet normal 0 1 -6.12303e-017
    outer loop
      vertex 0.951057 15 21.0399
      vertex 0 15 24
      vertex 4 15 19
    endloop
  endfacet
  facet normal 0 1 -6.12303e-017
    outer loop
      vertex -4 15 19
      vertex -1 15 20.7
      vertex -0.951057 15 20.3601
    endloop
  endfacet
  facet normal 0 1 -6.12303e-017
    outer loop
      vertex -4 15 19
      vertex -0.951057 15 20.3601
      vertex -0.809017 15 20.0534
    endloop
  endfacet
  facet normal 0 1 -6.12303e-017
    outer loop
      vertex -4 15 19
      vertex -0.809017 15 20.0534
      vertex -0.587785 15 19.8101
    endloop
  endfacet
  facet normal 0 1 -6.12303e-017
    outer loop
      vertex -4 15 19
      vertex -0.587785 15 19.8101
      vertex -0.309017 15 19.6538
    endloop
  endfacet
  facet normal 0 1 -6.12303e-017
    outer loop
      vertex -4 15 19
      vertex -0.309017 15 19.6538
      vertex 0 15 19.6
    endloop
  endfacet
  facet normal 0 1 -6.12303e-017
    outer loop
      vertex -4 15 19
      vertex 0 15 19.6
      vertex 4 15 19
    endloop
  endfacet
  facet normal 0 1 -6.12303e-017
    outer loop
      vertex 0.587785 15 19.8101
      vertex 4 15 19
      vertex 0.309017 15 19.6538
    endloop
  endfacet
  facet normal 0 1 -6.12303e-017
    outer loop
      vertex 0.809017 15 20.0534
      vertex 4 15 19
      vertex 0.587785 15 19.8101
    endloop
  endfacet
  facet normal 0 1 -6.12303e-017
    outer loop
      vertex 0.951057 15 20.3601
      vertex 4 15 19
      vertex 0.809017 15 20.0534
    endloop
  endfacet
  facet normal 0 1 -6.12303e-017
    outer loop
      vertex -0.809017 15 21.3466
      vertex 0 15 24
      vertex -0.587785 15 21.5899
    endloop
  endfacet
  facet normal 0 1 -6.12303e-017
    outer loop
      vertex 0.587785 15 21.5899
      vertex 0 15 24
      vertex 0.809017 15 21.3466
    endloop
  endfacet
  facet normal 0 1 -6.12303e-017
    outer loop
      vertex 0.951057 15 20.3601
      vertex 1 15 20.7
      vertex 4 15 19
    endloop
  endfacet
  facet normal 0 1 -6.12303e-017
    outer loop
      vertex 0.809017 15 21.3466
      vertex 0 15 24
      vertex 0.951057 15 21.0399
    endloop
  endfacet
  facet normal 0 1 -6.12303e-017
    outer loop
      vertex 1 15 20.7
      vertex 0.951057 15 21.0399
      vertex 4 15 19
    endloop
  endfacet
  facet normal 0 1 -6.12303e-017
    outer loop
      vertex 0.309017 15 21.7462
      vertex 0 15 24
      vertex 0.587785 15 21.5899
    endloop
  endfacet
  facet normal 0 1 -6.12303e-017
    outer loop
      vertex 0 15 21.8
      vertex 0 15 24
      vertex 0.309017 15 21.7462
    endloop
  endfacet
  facet normal 0 1 -6.12303e-017
    outer loop
      vertex -0.309017 15 21.7462
      vertex 0 15 24
      vertex 0 15 21.8
    endloop
  endfacet
  facet normal 0 1 -6.12303e-017
    outer loop
      vertex -0.587785 15 21.5899
      vertex 0 15 24
      vertex -0.309017 15 21.7462
    endloop
  endfacet
  facet normal 0 1 -6.12303e-017
    outer loop
      vertex -4 15 19
      vertex 0 15 24
      vertex -0.809017 15 21.3466
    endloop
  endfacet
  facet normal 0 1 -6.12303e-017
    outer loop
      vertex -4 15 19
      vertex -0.809017 15 21.3466
      vertex -0.951057 15 21.0399
    endloop
  endfacet
  facet normal 0 1 -6.12303e-017
    outer loop
      vertex -4 15 19
      vertex -0.951057 15 21.0399
      vertex -1 15 20.7
    endloop
  endfacet
  facet normal 0 1 -6.12303e-017
    outer loop
      vertex 0.309017 15 19.6538
      vertex 4 15 19
      vertex 0 15 19.6
    endloop
  endfacet
  facet normal 0 -1 0
    outer loop
      vertex -5.40351 13.2 49.2982
      vertex -6 13.2 50
      vertex -4 13.2 19
    endloop
  endfacet
  facet normal 0 -1 0
    outer loop
      vertex -69.2723 13.2 19
      vertex -0.9 13.2 19
      vertex -4 13.2 19
    endloop
  endfacet
  facet normal 0 -1 0
    outer loop
      vertex -0.9 13.2 22.875
      vertex -0.9 13.2 50
      vertex -4 13.2 19
    endloop
  endfacet
  facet normal 0 -1 0
    outer loop
      vertex -0.9 13.2 50
      vertex -4 13.2 50
      vertex -4 13.2 19
    endloop
  endfacet
  facet normal 0 -1 0
    outer loop
      vertex -4 13.2 50
      vertex -5.40351 13.2 49.2982
      vertex -4 13.2 19
    endloop
  endfacet
  facet normal 0 -1 0
    outer loop
      vertex -6 13.2 50
      vertex -24.9997 13.2 50
      vertex -4 13.2 19
    endloop
  endfacet
  facet normal 0 -1 0
    outer loop
      vertex -24.9997 13.2 50
      vertex -69.2723 13.2 19
      vertex -4 13.2 19
    endloop
  endfacet
  facet normal 0 0 1
    outer loop
      vertex -0.9 -13.2 19
      vertex -0.9 13.2 19
      vertex -69.2723 13.2 19
    endloop
  endfacet
  facet normal 0 0 1
    outer loop
      vertex -69.2723 -13.2 19
      vertex -0.9 -13.2 19
      vertex -69.2723 13.2 19
    endloop
  endfacet
  facet normal 0 1 0
    outer loop
      vertex -0.9 -13.2 50
      vertex -0.9 -13.2 22.875
      vertex -24.9997 -13.2 50
    endloop
  endfacet
  facet normal 0 1 0
    outer loop
      vertex -24.9997 -13.2 50
      vertex -0.9 -13.2 22.875
      vertex -4 -13.2 19
    endloop
  endfacet
  facet normal 0 1 0
    outer loop
      vertex -4 -13.2 19
      vertex -0.9 -13.2 19
      vertex -69.2723 -13.2 19
    endloop
  endfacet
  facet normal 0 1 0
    outer loop
      vertex -4 -13.2 19
      vertex -69.2723 -13.2 19
      vertex -24.9997 -13.2 50
    endloop
  endfacet
  facet normal -1 0 0
    outer loop
      vertex -0.9 -13.2 22.875
      vertex -0.9 -13.2 50
      vertex -0.9 13.2 22.875
    endloop
  endfacet
  facet normal -1 0 0
    outer loop
      vertex -0.9 13.2 22.875
      vertex -0.9 -13.2 50
      vertex -0.9 7 50
    endloop
  endfacet
  facet normal -1 0 0
    outer loop
      vertex -0.9 13.2 22.875
      vertex -0.9 7 50
      vertex -0.9 13.2 50
    endloop
  endfacet
  facet normal 0 -1 0
    outer loop
      vertex -4 7 50
      vertex -6 7 50
      vertex -0.9 7 50
    endloop
  endfacet
  facet normal 0 -1 0
    outer loop
      vertex 0 7 51.9
      vertex -6 7 70
      vertex -0.855 7 50
    endloop
  endfacet
  facet normal 0 -1 0
    outer loop
      vertex -0.855 7 50
      vertex -6 7 70
      vertex -0.9 7 50
    endloop
  endfacet
  facet normal 0 -1 0
    outer loop
      vertex -2.5 7 59.7
      vertex -6 7 70
      vertex 0 7 51.9
    endloop
  endfacet
  facet normal 0 -1 0
    outer loop
      vertex -2.5 7 59.7
      vertex -2.5 7 70
      vertex -6 7 70
    endloop
  endfacet
  facet normal 0 -1 0
    outer loop
      vertex 6 7 70
      vertex 2.5 7 70
      vertex 6 7 50
    endloop
  endfacet
  facet normal 0 -1 0
    outer loop
      vertex 2.5 7 70
      vertex 2.5 7 59.7
      vertex 6 7 50
    endloop
  endfacet
  facet normal 0 -1 0
    outer loop
      vertex 0.855 7 50
      vertex -2.5 7 59.7
      vertex 0 7 51.9
    endloop
  endfacet
  facet normal 0 -1 0
    outer loop
      vertex -6 7 70
      vertex -6 7 50
      vertex -4 7 50
    endloop
  endfacet
  facet normal 0 -1 0
    outer loop
      vertex -6 7 70
      vertex -4 7 50
      vertex -0.9 7 50
    endloop
  endfacet
  facet normal 0 -1 0
    outer loop
      vertex 4 7 50
      vertex 0.9 7 50
      vertex 6 7 50
    endloop
  endfacet
  facet normal 0 -1 0
    outer loop
      vertex 2.5 7 59.7
      vertex 4 7 50
      vertex 6 7 50
    endloop
  endfacet
  facet normal 0 -1 0
    outer loop
      vertex 2.5 7 59.7
      vertex 0.9 7 50
      vertex 4 7 50
    endloop
  endfacet
  facet normal 0 -1 0
    outer loop
      vertex 2.5 7 59.7
      vertex 0.855 7 50
      vertex 0.9 7 50
    endloop
  endfacet
  facet normal 0 -1 0
    outer loop
      vertex 2.5 7 59.7
      vertex -2.5 7 59.7
      vertex 0.855 7 50
    endloop
  endfacet
  facet normal -0.911922 2.51268e-017 0.410365
    outer loop
      vertex -0.855 -14.8 50
      vertex 0 -14.8 51.9
      vertex -0.855 7 50
    endloop
  endfacet
  facet normal -0.911922 2.51268e-017 0.410365
    outer loop
      vertex -0.855 7 50
      vertex 0 -14.8 51.9
      vertex 0 7 51.9
    endloop
  endfacet
  facet normal 0 -1 6.12303e-017
    outer loop
      vertex 0 -14.8 51.9
      vertex -0.855 -14.8 50
      vertex 0.855 -14.8 50
    endloop
  endfacet
  facet normal 0.911922 2.51268e-017 0.410365
    outer loop
      vertex 0 7 51.9
      vertex 0 -14.8 51.9
      vertex 0.855 -14.8 50
    endloop
  endfacet
  facet normal 0.911922 2.51268e-017 0.410365
    outer loop
      vertex 0.855 7 50
      vertex 0 7 51.9
      vertex 0.855 -14.8 50
    endloop
  endfacet
  facet normal 1 0 0
    outer loop
      vertex 0.9 -13.2 50
      vertex 0.9 -13.2 49.9
      vertex 0.9 13.2 49.9
    endloop
  endfacet
  facet normal 1 0 0
    outer loop
      vertex 0.9 7 50
      vertex 0.9 -13.2 50
      vertex 0.9 13.2 49.9
    endloop
  endfacet
  facet normal 1 0 0
    outer loop
      vertex 0.9 13.2 50
      vertex 0.9 7 50
      vertex 0.9 13.2 49.9
    endloop
  endfacet
  facet normal 0 1 0
    outer loop
      vertex 4 -13.2 19
      vertex 0.9 -13.2 22.875
      vertex 0.9 -13.2 49.9
    endloop
  endfacet
  facet normal 0 1 0
    outer loop
      vertex 0.9 -13.2 49.9
      vertex 0.9 -13.2 50
      vertex 4 -13.2 19
    endloop
  endfacet
  facet normal 0 1 0
    outer loop
      vertex 4 -13.2 19
      vertex 0.9 -13.2 50
      vertex 24.9997 -13.2 50
    endloop
  endfacet
  facet normal 0 1 0
    outer loop
      vertex 4 -13.2 19
      vertex 24.9997 -13.2 50
      vertex 69.2723 -13.2 19
    endloop
  endfacet
  facet normal 0 1 0
    outer loop
      vertex 4 -13.2 19
      vertex 69.2723 -13.2 19
      vertex 0.9 -13.2 19
    endloop
  endfacet
  facet normal 0 0 1
    outer loop
      vertex 69.2723 -13.2 19
      vertex 69.2723 13.2 19
      vertex 0.9 13.2 19
    endloop
  endfacet
  facet normal 0 0 1
    outer loop
      vertex 0.9 -13.2 19
      vertex 69.2723 -13.2 19
      vertex 0.9 13.2 19
    endloop
  endfacet
  facet normal 0 -1 0
    outer loop
      vertex 69.2723 13.2 19
      vertex 24.9997 13.2 50
      vertex 6 13.2 50
    endloop
  endfacet
  facet normal 0 -1 0
    outer loop
      vertex 0.9 13.2 50
      vertex 69.2723 13.2 19
      vertex 5.40351 13.2 49.2982
    endloop
  endfacet
  facet normal 0 -1 0
    outer loop
      vertex 5.40351 13.2 49.2982
      vertex 69.2723 13.2 19
      vertex 6 13.2 50
    endloop
  endfacet
  facet normal 0 -1 0
    outer loop
      vertex 0.9 13.2 50
      vertex 5.40351 13.2 49.2982
      vertex 4 13.2 50
    endloop
  endfacet
  facet normal 0 -1 0
    outer loop
      vertex 0.9 13.2 49.9
      vertex 69.2723 13.2 19
      vertex 0.9 13.2 50
    endloop
  endfacet
  facet normal 0 -1 0
    outer loop
      vertex 0.9 13.2 22.875
      vertex 69.2723 13.2 19
      vertex 0.9 13.2 49.9
    endloop
  endfacet
  facet normal 0 -1 0
    outer loop
      vertex 4 13.2 19
      vertex 69.2723 13.2 19
      vertex 0.9 13.2 22.875
    endloop
  endfacet
  facet normal 0 -1 0
    outer loop
      vertex 0.9 13.2 19
      vertex 69.2723 13.2 19
      vertex 4 13.2 19
    endloop
  endfacet
  facet normal 0.761939 -3.26577e-017 -0.647648
    outer loop
      vertex 6 13.2 50
      vertex 6 7 50
      vertex 5.40351 13.2 49.2982
    endloop
  endfacet
  facet normal 0.761939 -3.26577e-017 -0.647648
    outer loop
      vertex 0.9 13.2 44
      vertex 5.40351 13.2 49.2982
      vertex 6 7 50
    endloop
  endfacet
  facet normal -0.761939 -3.26577e-017 -0.647648
    outer loop
      vertex -6 7 50
      vertex -5.40351 13.2 49.2982
      vertex -0.9 13.2 44
    endloop
  endfacet
  facet normal -0.761939 -3.26577e-017 -0.647648
    outer loop
      vertex -6 13.2 50
      vertex -5.40351 13.2 49.2982
      vertex -6 7 50
    endloop
  endfacet
  facet normal 6.12303e-017 1 -1.22461e-016
    outer loop
      vertex -5.40351 13.2 49.2982
      vertex -4 13.2 50
      vertex -0.9 13.2 44
    endloop
  endfacet
  facet normal 6.12303e-017 1 -1.22461e-016
    outer loop
      vertex -0.9 13.2 44
      vertex -4 13.2 50
      vertex -0.9 13.2 50
    endloop
  endfacet
  facet normal -0.780869 3.82503e-017 0.624695
    outer loop
      vertex -0.9 13.2 22.875
      vertex -4 13.2 19
      vertex -0.9 -13.2 22.875
    endloop
  endfacet
  facet normal -0.780869 3.82503e-017 0.624695
    outer loop
      vertex -0.9 -13.2 22.875
      vertex -4 13.2 19
      vertex -4 -13.2 19
    endloop
  endfacet
  facet normal 0 -6.12303e-017 -1
    outer loop
      vertex -0.9 13.2 19
      vertex -0.9 -13.2 19
      vertex -4 13.2 19
    endloop
  endfacet
  facet normal 0 -6.12303e-017 -1
    outer loop
      vertex -4 13.2 19
      vertex -0.9 -13.2 19
      vertex -4 -13.2 19
    endloop
  endfacet
  facet normal 1 -6.12303e-017 7.4983e-033
    outer loop
      vertex -0.9 13.2 50
      vertex -0.9 7 50
      vertex -0.9 13.2 44
    endloop
  endfacet
  facet normal -4.25809e-017 -0.695421 -0.718602
    outer loop
      vertex -0.9 7 50
      vertex -6 7 50
      vertex -0.9 13.2 44
    endloop
  endfacet
  facet normal 4.25809e-017 -0.695421 -0.718602
    outer loop
      vertex 6 7 50
      vertex 0.9 7 50
      vertex 0.9 13.2 44
    endloop
  endfacet
  facet normal -1 -6.12303e-017 7.4983e-033
    outer loop
      vertex 0.9 7 50
      vertex 0.9 13.2 50
      vertex 0.9 13.2 44
    endloop
  endfacet
  facet normal -6.12303e-017 1 -1.22461e-016
    outer loop
      vertex 4 13.2 50
      vertex 5.40351 13.2 49.2982
      vertex 0.9 13.2 50
    endloop
  endfacet
  facet normal -6.12303e-017 1 -1.22461e-016
    outer loop
      vertex 0.9 13.2 50
      vertex 5.40351 13.2 49.2982
      vertex 0.9 13.2 44
    endloop
  endfacet
  facet normal 0 -6.12303e-017 -1
    outer loop
      vertex 0.9 -13.2 19
      vertex 0.9 13.2 19
      vertex 4 -13.2 19
    endloop
  endfacet
  facet normal 0 -6.12303e-017 -1
    outer loop
      vertex 4 -13.2 19
      vertex 0.9 13.2 19
      vertex 4 13.2 19
    endloop
  endfacet
  facet normal 1 0 0
    outer loop
      vertex 0.9 -13.2 49.9
      vertex 0.9 -13.2 22.875
      vertex 0.9 13.2 22.875
    endloop
  endfacet
  facet normal 1 0 0
    outer loop
      vertex 0.9 13.2 49.9
      vertex 0.9 -13.2 49.9
      vertex 0.9 13.2 22.875
    endloop
  endfacet
  facet normal 0.780869 3.82503e-017 0.624695
    outer loop
      vertex 0.9 13.2 22.875
      vertex 0.9 -13.2 22.875
      vertex 4 -13.2 19
    endloop
  endfacet
  facet normal 0.780869 3.82503e-017 0.624695
    outer loop
      vertex 4 13.2 19
      vertex 0.9 13.2 22.875
      vertex 4 -13.2 19
    endloop
  endfacet
endsolid OpenSCAD_Model
